# xmcd
#
# Track frame offsets:
#	150
#	12377
#	32742
#	49185
#	72427
#	88197
#	106580
#	121110
#	137962
#	155460
#	172222
#	187632
#	201230
#	218912
#	233782
#
# Disc length: 3310 seconds
#
# Revision: 0
# Processed by: cddbd v1.4PL0 Copyright (c) Steve Scherf et al.
# Submitted via: audiograbber 1.80
#
DISCID=cf0cec0f
DTITLE=The Judds - Judd Music: A Sample of the 1983-1990 Collection
DYEAR=1900
DGENRE=
TTITLE0=Rockin' With The Rhythm Of The Rain
TTITLE1=River Of Time
TTITLE2=When King Jesus Calls His Children Home (Studio Work Tape)
TTITLE3=Give A Little Love (Studio Work Tape)
TTITLE4=Drops Of Water
TTITLE5=Grandpa (Tell Me 'Bout The Good Old Days) (Studio Work Tape)
TTITLE6=Had A Dream (For The Heart)
TTITLE7=Dream Chaser
TTITLE8=The Sweetest Gift
TTITLE9=Turn It Loose
TTITLE10=Mr. Pain
TTITLE11=Let Me Tell You About Love
TTITLE12=One Hundred And Two
TTITLE13=Why Not Me (Studio Work Tape)
TTITLE14=Mama He's Crazy
EXTD=
EXTT0=
EXTT1=
EXTT2=
EXTT3=
EXTT4=
EXTT5=
EXTT6=
EXTT7=
EXTT8=
EXTT9=
EXTT10=
EXTT11=
EXTT12=
EXTT13=
EXTT14=
PLAYORDER=
